<svg width="36" height="36" viewBox="0 0 36 36" fill="none" xmlns="http://www.w3.org/2000/svg">
<g clip-path="url(#clip0_226_997)">
<g clip-path="url(#clip1_226_997)">
<g clip-path="url(#clip2_226_997)">
<path d="M18.3398 35.875C28.0048 35.875 35.8398 28.04 35.8398 18.375C35.8398 8.71002 28.0048 0.875 18.3398 0.875C8.67486 0.875 0.839844 8.71002 0.839844 18.375C0.839844 28.04 8.67486 35.875 18.3398 35.875Z" fill="#35A548"/>
<mask id="mask0_226_997" style="mask-type:luminance" maskUnits="userSpaceOnUse" x="4" y="6" width="29" height="25">
<path d="M32.8398 6.875H4.83984V30.875H32.8398V6.875Z" fill="white"/>
</mask>
<g mask="url(#mask0_226_997)">
<path d="M6.27452 23.2914C5.95222 23.6037 5.94405 24.118 6.25628 24.4403C6.5685 24.7626 7.08289 24.7708 7.40518 24.4586L6.27452 23.2914ZM14.3038 16.6442L14.8877 16.0792C14.7378 15.9243 14.5325 15.8353 14.3169 15.8318C14.1014 15.8284 13.8933 15.9107 13.7385 16.0607L14.3038 16.6442ZM18.1748 20.6442L17.5909 21.2093C17.743 21.3664 17.9519 21.4556 18.1706 21.4567C18.3892 21.4579 18.5991 21.3708 18.7527 21.2153L18.1748 20.6442ZM27.6523 11.8701C27.6496 11.4214 27.2837 11.0598 26.8349 11.0625L19.5226 11.1062C19.0739 11.1089 18.7123 11.4748 18.7149 11.9236C18.7176 12.3723 19.0836 12.7339 19.5323 12.7312L26.0322 12.6923L26.071 19.1922C26.0737 19.6409 26.4396 20.0025 26.8884 19.9999C27.3371 19.9972 27.6987 19.6312 27.696 19.1825L27.6523 11.8701ZM7.40518 24.4586L14.8692 17.2278L13.7385 16.0607L6.27452 23.2914L7.40518 24.4586ZM13.72 17.2093L17.5909 21.2093L18.7587 20.0792L14.8877 16.0792L13.72 17.2093ZM18.7527 21.2153L27.4177 12.4461L26.2619 11.3039L17.5968 20.0732L18.7527 21.2153Z" fill="white"/>
</g>
</g>
</g>
</g>
<defs>
<clipPath id="clip0_226_997">
<rect width="35" height="35" fill="white" transform="translate(0.839844 0.875)"/>
</clipPath>
<clipPath id="clip1_226_997">
<rect width="35" height="35" fill="white" transform="translate(0.839844 0.875)"/>
</clipPath>
<clipPath id="clip2_226_997">
<rect width="35" height="35" fill="white" transform="translate(0.839844 0.875)"/>
</clipPath>
</defs>
</svg>
