<svg width="36" height="36" viewBox="0 0 36 36" fill="none" xmlns="http://www.w3.org/2000/svg">
<g clip-path="url(#clip0_226_964)">
<g clip-path="url(#clip1_226_964)">
<g clip-path="url(#clip2_226_964)">
<path d="M18.3398 35.875C28.0048 35.875 35.8398 28.04 35.8398 18.375C35.8398 8.71002 28.0048 0.875 18.3398 0.875C8.67486 0.875 0.839844 8.71002 0.839844 18.375C0.839844 28.04 8.67486 35.875 18.3398 35.875Z" fill="#35A548"/>
<path d="M7.83984 26.875V25.875C7.83984 22.009 10.9738 18.875 14.8398 18.875C18.7058 18.875 21.8398 22.009 21.8398 25.875V26.875" stroke="white" stroke-width="1.5" stroke-linecap="round"/>
<path d="M19.8398 20.875C19.8398 18.1136 22.0784 15.875 24.8398 15.875C27.6012 15.875 29.8398 18.1136 29.8398 20.875V21.375" stroke="white" stroke-width="1.5" stroke-linecap="round"/>
<path d="M14.8398 18.875C17.0489 18.875 18.8398 17.0841 18.8398 14.875C18.8398 12.6659 17.0489 10.875 14.8398 10.875C12.6307 10.875 10.8398 12.6659 10.8398 14.875C10.8398 17.0841 12.6307 18.875 14.8398 18.875Z" stroke="white" stroke-width="1.5" stroke-linecap="round" stroke-linejoin="round"/>
<path d="M24.8398 15.875C26.4967 15.875 27.8398 14.5318 27.8398 12.875C27.8398 11.2182 26.4967 9.875 24.8398 9.875C23.1829 9.875 21.8398 11.2182 21.8398 12.875C21.8398 14.5318 23.1829 15.875 24.8398 15.875Z" stroke="white" stroke-width="1.5" stroke-linecap="round" stroke-linejoin="round"/>
</g>
</g>
</g>
<defs>
<clipPath id="clip0_226_964">
<rect width="35" height="35" fill="white" transform="translate(0.839844 0.875)"/>
</clipPath>
<clipPath id="clip1_226_964">
<rect width="35" height="35" fill="white" transform="translate(0.839844 0.875)"/>
</clipPath>
<clipPath id="clip2_226_964">
<rect width="35" height="35" fill="white" transform="translate(0.839844 0.875)"/>
</clipPath>
</defs>
</svg>
