<svg width="36" height="36" viewBox="0 0 36 36" fill="none" xmlns="http://www.w3.org/2000/svg">
<g clip-path="url(#clip0_226_1442)">
<g clip-path="url(#clip1_226_1442)">
<g clip-path="url(#clip2_226_1442)">
<path d="M18.3398 35.875C28.0048 35.875 35.8398 28.04 35.8398 18.375C35.8398 8.71002 28.0048 0.875 18.3398 0.875C8.67486 0.875 0.839844 8.71002 0.839844 18.375C0.839844 28.04 8.67486 35.875 18.3398 35.875Z" fill="#35A548"/>
<mask id="mask0_226_1442" style="mask-type:luminance" maskUnits="userSpaceOnUse" x="6" y="5" width="25" height="25">
<path d="M30.8398 5.875H6.83984V29.875H30.8398V5.875Z" fill="white"/>
</mask>
<g mask="url(#mask0_226_1442)">
<path d="M26.8398 15.875C26.8398 20.2933 18.8398 27.875 18.8398 27.875C18.8398 27.875 10.8398 20.2933 10.8398 15.875C10.8398 11.4567 14.4215 7.875 18.8398 7.875C23.2581 7.875 26.8398 11.4567 26.8398 15.875Z" stroke="white" stroke-width="1.5"/>
<path d="M18.8398 16.875C19.3921 16.875 19.8398 16.4273 19.8398 15.875C19.8398 15.3227 19.3921 14.875 18.8398 14.875C18.2875 14.875 17.8398 15.3227 17.8398 15.875C17.8398 16.4273 18.2875 16.875 18.8398 16.875Z" fill="white" stroke="white" stroke-width="1.5" stroke-linecap="round" stroke-linejoin="round"/>
</g>
</g>
</g>
</g>
<defs>
<clipPath id="clip0_226_1442">
<rect width="35" height="35" fill="white" transform="translate(0.839844 0.875)"/>
</clipPath>
<clipPath id="clip1_226_1442">
<rect width="35" height="35" fill="white" transform="translate(0.839844 0.875)"/>
</clipPath>
<clipPath id="clip2_226_1442">
<rect width="35" height="35" fill="white" transform="translate(0.839844 0.875)"/>
</clipPath>
</defs>
</svg>
