<svg width="201" height="39" viewBox="0 0 201 39" fill="none" xmlns="http://www.w3.org/2000/svg">
<g clip-path="url(#clip0_226_1758)">
<g clip-path="url(#clip1_226_1758)">
<g clip-path="url(#clip2_226_1758)">
<mask id="mask0_226_1758" style="mask-type:luminance" maskUnits="userSpaceOnUse" x="0" y="0" width="201" height="39">
<path d="M200.824 0.875H0.856445V38.0732H200.824V0.875Z" fill="white"/>
</mask>
<g mask="url(#mask0_226_1758)">
<path d="M182.24 38.0732H19.4403C9.21146 38.0732 0.856445 29.7182 0.856445 19.4588C0.856445 9.19929 9.21146 0.875 19.4403 0.875H182.209C192.469 0.875 200.824 9.23001 200.824 19.4588C200.824 29.6875 192.469 38.0732 182.24 38.0732ZM19.4403 4.13099C10.993 4.13099 4.11244 11.0116 4.11244 19.4588C4.11244 27.9059 10.993 34.7865 19.4403 34.7865H182.209C190.656 34.7865 197.537 27.9059 197.537 19.4588C197.537 11.0116 190.656 4.13099 182.209 4.13099H19.4403Z" fill="#4FB051"/>
<path d="M89.2938 21.5478C91.0753 21.1178 92.3962 19.4898 92.3962 17.5854C92.3962 15.343 90.5531 13.5 88.3107 13.5H77.4062V26.1554H79.8943V21.6707H86.1606L89.7852 26.1247H93.0104L89.2938 21.5478ZM79.8943 19.1826V15.9573H88.3107C89.2015 15.9573 89.908 16.6946 89.908 17.5546C89.908 18.4454 89.1709 19.1519 88.3107 19.1519H79.8943V19.1826Z" fill="#35332B"/>
<path d="M97.4324 15.9568V18.5677H107.446V21.0558H97.4324V23.6361H109.934V26.1242H94.9443V13.4688H109.934V15.9568H97.4324Z" fill="#35332B"/>
<path d="M130.177 13.4688V26.1242H127.689V16.9705L121.146 26.1242L114.603 16.9705V26.1242H112.115V13.4688H115.156L121.146 21.8545L127.136 13.4688H130.177Z" fill="#35332B"/>
<path d="M152.045 13.4688L161.566 23.1754V13.4688H164.054V26.1241H160.983L151.43 16.4176V26.1241H148.941V13.4688H152.045Z" fill="#35332B"/>
<path d="M180.948 15.9568H174.682V26.1242H172.193V15.9568H165.958V13.4688H180.948V15.9568Z" fill="#35332B"/>
<path d="M142.311 13.4688H136.813C134.202 13.4688 132.082 15.6189 132.082 18.1992V21.3631C132.082 23.974 134.232 26.0934 136.813 26.0934H142.311C144.922 26.0934 147.041 23.9432 147.041 21.3631V18.2298C147.072 15.6189 144.922 13.4688 142.311 13.4688ZM144.584 21.3937C144.584 22.6224 143.57 23.6361 142.311 23.6361H136.813C135.584 23.6361 134.539 22.6224 134.539 21.3937V18.2298C134.539 17.0011 135.553 15.9876 136.813 15.9876H142.311C143.539 15.9876 144.584 17.0011 144.584 18.2298V21.3937Z" fill="#35332B"/>
<path d="M44.2917 13.5H46.5341H47.1177L56.6399 23.1759V13.5H59.128V26.1247H58.7594H56.6399H56.0563L46.5341 16.4488V26.1247H44.0459V13.5H44.2917Z" fill="#35332B"/>
<path d="M70.0017 13.5H66.5613L60.418 26.1247H63.2747L64.5649 23.3601H71.9983L73.2578 26.1247H76.1144L70.0017 13.5ZM65.732 20.9028L68.0051 15.9881H68.5887L70.8618 20.9028H65.732Z" fill="#35332B"/>
<path d="M19.7142 31.5906C26.4152 31.5906 31.8474 26.1583 31.8474 19.4574C31.8474 12.7564 26.4152 7.32422 19.7142 7.32422C13.0133 7.32422 7.58105 12.7564 7.58105 19.4574C7.58105 26.1583 13.0133 31.5906 19.7142 31.5906Z" fill="#4FB051"/>
</g>
</g>
</g>
</g>
<defs>
<clipPath id="clip0_226_1758">
<rect width="200" height="37.95" fill="white" transform="translate(0.839844 0.875)"/>
</clipPath>
<clipPath id="clip1_226_1758">
<rect width="200" height="37.95" fill="white" transform="translate(0.839844 0.875)"/>
</clipPath>
<clipPath id="clip2_226_1758">
<rect width="199.967" height="37.95" fill="white" transform="translate(0.856445 0.875)"/>
</clipPath>
</defs>
</svg>
